<mxfile host="65bd71144e">
    <diagram id="_pNqirue3gp7uLTz0cEh" name="Page-1">
        <mxGraphModel dx="1089" dy="812" grid="1" gridSize="10" guides="1" tooltips="1" connect="1" arrows="1" fold="1" page="1" pageScale="1" pageWidth="850" pageHeight="1100" math="0" shadow="0">
            <root>
                <mxCell id="0"/>
                <mxCell id="1" parent="0"/>
                <mxCell id="10" value="Country" style="swimlane;fontStyle=1;align=center;verticalAlign=middle;childLayout=stackLayout;horizontal=1;startSize=29;horizontalStack=0;resizeParent=1;resizeParentMax=0;resizeLast=0;collapsible=0;marginBottom=0;html=1;" parent="1" vertex="1">
                    <mxGeometry x="300" y="240" width="140" height="54" as="geometry"/>
                </mxCell>
                <mxCell id="12" value="name: string" style="text;html=1;strokeColor=none;fillColor=none;align=left;verticalAlign=middle;spacingLeft=4;spacingRight=4;overflow=hidden;rotatable=0;points=[[0,0.5],[1,0.5]];portConstraint=eastwest;" parent="10" vertex="1">
                    <mxGeometry y="29" width="140" height="25" as="geometry"/>
                </mxCell>
                <mxCell id="24" style="edgeStyle=orthogonalEdgeStyle;rounded=0;orthogonalLoop=1;jettySize=auto;html=1;exitX=1;exitY=0.25;exitDx=0;exitDy=0;endArrow=none;endFill=0;" parent="1" source="13" edge="1">
                    <mxGeometry relative="1" as="geometry">
                        <mxPoint x="388" y="424" as="targetPoint"/>
                    </mxGeometry>
                </mxCell>
                <mxCell id="13" value="Person" style="swimlane;fontStyle=1;align=center;verticalAlign=middle;childLayout=stackLayout;horizontal=1;startSize=29;horizontalStack=0;resizeParent=1;resizeParentMax=0;resizeLast=0;collapsible=0;marginBottom=0;html=1;" parent="1" vertex="1">
                    <mxGeometry x="70" y="410" width="140" height="54" as="geometry"/>
                </mxCell>
                <mxCell id="14" value="name: string" style="text;html=1;strokeColor=none;fillColor=none;align=left;verticalAlign=middle;spacingLeft=4;spacingRight=4;overflow=hidden;rotatable=0;points=[[0,0.5],[1,0.5]];portConstraint=eastwest;" parent="13" vertex="1">
                    <mxGeometry y="29" width="140" height="25" as="geometry"/>
                </mxCell>
                <mxCell id="39" style="edgeStyle=orthogonalEdgeStyle;rounded=0;orthogonalLoop=1;jettySize=auto;html=1;exitX=0.25;exitY=0;exitDx=0;exitDy=0;entryX=0.514;entryY=1.04;entryDx=0;entryDy=0;entryPerimeter=0;endArrow=none;endFill=0;" parent="1" source="15" target="12" edge="1">
                    <mxGeometry relative="1" as="geometry"/>
                </mxCell>
                <mxCell id="59" style="edgeStyle=orthogonalEdgeStyle;rounded=0;orthogonalLoop=1;jettySize=auto;html=1;exitX=0.75;exitY=0;exitDx=0;exitDy=0;entryX=0.486;entryY=1.04;entryDx=0;entryDy=0;entryPerimeter=0;endArrow=none;endFill=0;" parent="1" source="15" target="18" edge="1">
                    <mxGeometry relative="1" as="geometry"/>
                </mxCell>
                <mxCell id="15" value="Show" style="swimlane;fontStyle=1;align=center;verticalAlign=middle;childLayout=stackLayout;horizontal=1;startSize=29;horizontalStack=0;resizeParent=1;resizeParentMax=0;resizeLast=0;collapsible=0;marginBottom=0;html=1;" parent="1" vertex="1">
                    <mxGeometry x="390" y="382" width="140" height="140" as="geometry"/>
                </mxCell>
                <mxCell id="16" value="title: string&lt;br&gt;description: string&lt;br&gt;date_added:date&lt;br&gt;release_year: int&lt;br&gt;rating: enum&lt;br&gt;duration: int&lt;br&gt;type:enum" style="text;html=1;strokeColor=none;fillColor=none;align=left;verticalAlign=middle;spacingLeft=4;spacingRight=4;overflow=hidden;rotatable=0;points=[[0,0.5],[1,0.5]];portConstraint=eastwest;" parent="15" vertex="1">
                    <mxGeometry y="29" width="140" height="111" as="geometry"/>
                </mxCell>
                <mxCell id="17" value="Genre" style="swimlane;fontStyle=1;align=center;verticalAlign=middle;childLayout=stackLayout;horizontal=1;startSize=29;horizontalStack=0;resizeParent=1;resizeParentMax=0;resizeLast=0;collapsible=0;marginBottom=0;html=1;" parent="1" vertex="1">
                    <mxGeometry x="465" y="240" width="140" height="54" as="geometry"/>
                </mxCell>
                <mxCell id="18" value="name: string" style="text;html=1;strokeColor=none;fillColor=none;align=left;verticalAlign=middle;spacingLeft=4;spacingRight=4;overflow=hidden;rotatable=0;points=[[0,0.5],[1,0.5]];portConstraint=eastwest;" parent="17" vertex="1">
                    <mxGeometry y="29" width="140" height="25" as="geometry"/>
                </mxCell>
                <mxCell id="20" style="edgeStyle=orthogonalEdgeStyle;rounded=0;orthogonalLoop=1;jettySize=auto;html=1;entryX=1;entryY=0.5;entryDx=0;entryDy=0;endArrow=none;endFill=0;" parent="1" target="14" edge="1">
                    <mxGeometry relative="1" as="geometry">
                        <mxPoint x="389" y="452" as="sourcePoint"/>
                    </mxGeometry>
                </mxCell>
                <mxCell id="21" value="*" style="text;html=1;strokeColor=none;fillColor=none;align=center;verticalAlign=middle;whiteSpace=wrap;rounded=0;" parent="1" vertex="1">
                    <mxGeometry x="210" y="460" width="40" height="20" as="geometry"/>
                </mxCell>
                <mxCell id="22" value="Director" style="text;html=1;strokeColor=none;fillColor=none;align=center;verticalAlign=middle;whiteSpace=wrap;rounded=0;" parent="1" vertex="1">
                    <mxGeometry x="280" y="460" width="40" height="20" as="geometry"/>
                </mxCell>
                <mxCell id="25" value="*" style="text;html=1;strokeColor=none;fillColor=none;align=center;verticalAlign=middle;whiteSpace=wrap;rounded=0;" parent="1" vertex="1">
                    <mxGeometry x="350" y="460" width="40" height="20" as="geometry"/>
                </mxCell>
                <mxCell id="36" value="*" style="text;html=1;strokeColor=none;fillColor=none;align=center;verticalAlign=middle;whiteSpace=wrap;rounded=0;" parent="1" vertex="1">
                    <mxGeometry x="350" y="400" width="40" height="20" as="geometry"/>
                </mxCell>
                <mxCell id="37" value="*" style="text;html=1;strokeColor=none;fillColor=none;align=center;verticalAlign=middle;whiteSpace=wrap;rounded=0;" parent="1" vertex="1">
                    <mxGeometry x="210" y="400" width="40" height="20" as="geometry"/>
                </mxCell>
                <mxCell id="38" value="Actor" style="text;html=1;strokeColor=none;fillColor=none;align=center;verticalAlign=middle;whiteSpace=wrap;rounded=0;" parent="1" vertex="1">
                    <mxGeometry x="280" y="400" width="40" height="20" as="geometry"/>
                </mxCell>
                <mxCell id="41" value="*" style="text;html=1;strokeColor=none;fillColor=none;align=center;verticalAlign=middle;whiteSpace=wrap;rounded=0;" parent="1" vertex="1">
                    <mxGeometry x="360" y="300" width="40" height="20" as="geometry"/>
                </mxCell>
                <mxCell id="42" value="*" style="text;html=1;strokeColor=none;fillColor=none;align=center;verticalAlign=middle;whiteSpace=wrap;rounded=0;" parent="1" vertex="1">
                    <mxGeometry x="420" y="362" width="40" height="20" as="geometry"/>
                </mxCell>
                <mxCell id="43" value="*" style="text;html=1;strokeColor=none;fillColor=none;align=center;verticalAlign=middle;whiteSpace=wrap;rounded=0;" parent="1" vertex="1">
                    <mxGeometry x="520" y="300" width="40" height="20" as="geometry"/>
                </mxCell>
                <mxCell id="44" value="*" style="text;html=1;strokeColor=none;fillColor=none;align=center;verticalAlign=middle;whiteSpace=wrap;rounded=0;" parent="1" vertex="1">
                    <mxGeometry x="490" y="362" width="40" height="20" as="geometry"/>
                </mxCell>
                <mxCell id="50" style="edgeStyle=orthogonalEdgeStyle;rounded=0;orthogonalLoop=1;jettySize=auto;html=1;exitX=0.5;exitY=0;exitDx=0;exitDy=0;entryX=0.5;entryY=1;entryDx=0;entryDy=0;endArrow=none;endFill=0;" parent="1" source="46" target="48" edge="1">
                    <mxGeometry relative="1" as="geometry"/>
                </mxCell>
                <mxCell id="46" value="Review" style="swimlane;fontStyle=1;align=center;verticalAlign=middle;childLayout=stackLayout;horizontal=1;startSize=29;horizontalStack=0;resizeParent=1;resizeParentMax=0;resizeLast=0;collapsible=0;marginBottom=0;html=1;" parent="1" vertex="1">
                    <mxGeometry x="680" y="382" width="140" height="140" as="geometry"/>
                </mxCell>
                <mxCell id="47" value="rating:int&lt;br&gt;title:string&lt;br&gt;body:string&lt;br&gt;helpful_votes:int&lt;br&gt;total_votes:int&lt;br&gt;review_date:date&lt;br&gt;spoiler:bool" style="text;html=1;strokeColor=none;fillColor=none;align=left;verticalAlign=middle;spacingLeft=4;spacingRight=4;overflow=hidden;rotatable=0;points=[[0,0.5],[1,0.5]];portConstraint=eastwest;" parent="46" vertex="1">
                    <mxGeometry y="29" width="140" height="111" as="geometry"/>
                </mxCell>
                <mxCell id="48" value="Reviewer" style="swimlane;fontStyle=1;align=center;verticalAlign=middle;childLayout=stackLayout;horizontal=1;startSize=29;horizontalStack=0;resizeParent=1;resizeParentMax=0;resizeLast=0;collapsible=0;marginBottom=0;html=1;" parent="1" vertex="1">
                    <mxGeometry x="680" y="260" width="140" height="60" as="geometry"/>
                </mxCell>
                <mxCell id="49" value="name:string" style="text;html=1;strokeColor=none;fillColor=none;align=left;verticalAlign=middle;spacingLeft=4;spacingRight=4;overflow=hidden;rotatable=0;points=[[0,0.5],[1,0.5]];portConstraint=eastwest;" parent="48" vertex="1">
                    <mxGeometry y="29" width="140" height="31" as="geometry"/>
                </mxCell>
                <mxCell id="51" value="1" style="text;html=1;strokeColor=none;fillColor=none;align=center;verticalAlign=middle;whiteSpace=wrap;rounded=0;" parent="1" vertex="1">
                    <mxGeometry x="740" y="320" width="40" height="20" as="geometry"/>
                </mxCell>
                <mxCell id="52" value="*" style="text;html=1;strokeColor=none;fillColor=none;align=center;verticalAlign=middle;whiteSpace=wrap;rounded=0;" parent="1" vertex="1">
                    <mxGeometry x="740" y="362" width="40" height="20" as="geometry"/>
                </mxCell>
                <mxCell id="56" value="1" style="text;html=1;strokeColor=none;fillColor=none;align=center;verticalAlign=middle;whiteSpace=wrap;rounded=0;" parent="1" vertex="1">
                    <mxGeometry x="530" y="470" width="40" height="20" as="geometry"/>
                </mxCell>
                <mxCell id="57" value="*" style="text;html=1;strokeColor=none;fillColor=none;align=center;verticalAlign=middle;whiteSpace=wrap;rounded=0;" parent="1" vertex="1">
                    <mxGeometry x="640" y="470" width="40" height="20" as="geometry"/>
                </mxCell>
                <mxCell id="63" style="edgeStyle=orthogonalEdgeStyle;rounded=0;orthogonalLoop=1;jettySize=auto;html=1;exitX=1;exitY=0.5;exitDx=0;exitDy=0;entryX=0;entryY=0.5;entryDx=0;entryDy=0;endArrow=none;endFill=0;" parent="1" source="16" target="47" edge="1">
                    <mxGeometry relative="1" as="geometry"/>
                </mxCell>
                <mxCell id="67" value="type in (TV Show, Movie)" style="text;html=1;strokeColor=none;fillColor=none;align=center;verticalAlign=middle;whiteSpace=wrap;rounded=0;" vertex="1" parent="1">
                    <mxGeometry x="390" y="530" width="140" height="20" as="geometry"/>
                </mxCell>
                <mxCell id="70" value="rating in ('TV-Y', 'TV-Y7', 'TV-Y7-FV', 'TV-G', 'TV-PG', 'TV-14', 'TV-MA', 'PG-13', 'PG', 'R', 'G', 'NC-17', 'NR', 'UR')" style="text;html=1;strokeColor=none;fillColor=none;align=center;verticalAlign=middle;whiteSpace=wrap;rounded=0;" vertex="1" parent="1">
                    <mxGeometry x="340" y="560" width="240" height="20" as="geometry"/>
                </mxCell>
            </root>
        </mxGraphModel>
    </diagram>
</mxfile>